<svg version="1.1" id="Layer_1" xmlns="http://www.w3.org/2000/svg" xmlns:xlink="http://www.w3.org/1999/xlink" x="0px" y="0px"
	 width="100%" viewBox="0 0 1280 768" enable-background="new 0 0 1280 768" xml:space="preserve">
<path fill="#000000" opacity="1.000000" stroke="none" 
	d="
M1187.000000,769.000000 
	C791.381470,769.000000 396.262939,769.000000 1.072216,769.000000 
	C1.072216,513.079346 1.072216,257.158661 1.072216,1.118999 
	C427.666656,1.118999 854.333313,1.118999 1280.996826,1.112497 
	C1280.993774,257.070679 1280.993774,513.035339 1280.990723,769.000000 
	C1249.825073,769.000000 1218.662476,769.000000 1187.000000,769.000000 
M475.475525,406.194519 
	C481.354675,406.509033 487.233795,406.823547 493.589905,407.828613 
	C495.087952,407.885315 496.586029,407.991425 498.084076,407.991547 
	C591.571289,407.999969 685.058533,408.000763 778.545776,407.988159 
	C779.648987,407.988007 780.752197,407.805206 781.999695,407.694885 
	C781.999695,404.414978 782.244202,401.399292 781.862671,398.464996 
	C781.734924,397.482666 780.009521,396.708099 779.273499,395.241180 
	C781.883911,392.729187 782.698181,390.637909 778.499634,388.707733 
	C776.790222,387.921814 775.567566,386.054382 774.156677,384.645721 
	C769.777649,380.273743 769.789795,380.275787 774.676636,376.697906 
	C776.399292,375.436646 778.084656,374.124481 779.608398,372.970825 
	C777.166504,368.904816 775.329102,367.844299 772.460999,370.932983 
	C770.869690,372.646759 768.675964,373.801117 766.617310,375.307495 
	C764.767578,372.616547 763.208313,370.348145 761.411682,367.734436 
	C759.794861,368.673584 758.332214,369.523193 756.643066,370.504364 
	C757.644104,372.164368 758.227112,373.549438 759.166870,374.621887 
	C765.397034,381.731537 771.703796,388.774139 777.060669,395.988220 
	C765.712219,395.938446 754.363708,395.888672 743.373779,395.225555 
	C748.114136,393.286530 752.854431,391.347504 757.616272,389.399689 
	C756.973145,387.676727 756.349487,386.005951 755.689941,384.238892 
	C752.738953,385.363983 749.991089,386.411621 747.000000,387.551971 
	C747.000000,385.212921 746.871826,383.372162 747.035706,381.557739 
	C747.203186,379.702393 747.131897,377.523254 748.081970,376.096252 
	C751.216614,371.388000 754.712463,366.914154 758.196350,362.449188 
	C758.990967,361.430725 760.259705,360.174591 761.369080,360.114624 
	C766.132202,359.856873 770.917358,360.004608 775.665405,360.004608 
	C775.954041,362.322571 776.171265,364.066925 776.383728,365.773651 
	C778.313171,365.773651 779.917725,365.773651 781.722412,365.773651 
	C781.722412,361.815948 781.722412,358.081726 781.722412,354.259094 
	C774.445068,354.577850 767.431946,354.885010 760.334045,355.195892 
	C760.070312,352.755127 759.881531,351.007568 759.661316,348.969513 
	C757.977295,349.104248 756.585571,349.215576 755.155090,349.330048 
	C755.024780,351.323120 754.919189,352.938446 754.780823,355.054779 
	C747.161682,355.054779 739.762695,355.054779 732.330078,355.054779 
	C732.330078,358.986145 732.330078,362.382751 732.330078,366.032898 
	C734.407959,365.932831 736.140686,365.849396 737.808838,365.769073 
	C737.970154,363.598328 738.089783,361.988068 738.216797,360.278625 
	C743.256287,360.278625 747.970093,360.278625 753.261780,360.278625 
	C747.624268,370.269226 738.981934,376.179840 729.610779,381.564545 
	C730.711487,383.287872 731.534119,384.575775 732.345093,385.845490 
	C735.383850,384.297729 738.069763,382.929688 741.854370,381.002014 
	C740.867920,385.377167 740.105774,388.757446 739.343628,392.137695 
	C738.901978,392.073059 738.460327,392.008423 738.018738,391.943817 
	C738.674316,393.242065 739.329956,394.540344 739.061401,395.988190 
	C733.045898,395.938385 727.030334,395.888550 721.326965,395.185516 
	C722.214661,393.861237 723.851624,392.549072 723.873291,391.210785 
	C724.071838,378.940033 723.990051,366.664764 723.990051,353.976990 
	C718.814026,354.398468 714.159363,354.777496 709.244629,355.177673 
	C709.053406,352.811401 708.912170,351.063690 708.773132,349.343109 
	C706.692810,349.343109 704.965698,349.343109 703.284607,349.343109 
	C703.029541,351.419800 702.816101,353.157532 702.612427,354.815765 
	C700.588013,354.969910 698.971191,355.093018 697.058960,355.238586 
	C697.135315,356.934937 697.197876,358.324097 697.259705,359.698181 
	C699.354004,359.963684 701.084595,360.183075 702.714355,360.389679 
	C703.942505,368.817719 701.728455,376.299103 699.032898,383.763733 
	C697.879150,386.958710 696.142090,387.615906 692.749878,386.406433 
	C692.749878,374.592773 692.749878,362.872040 692.749878,351.102478 
	C685.545898,351.557129 678.869690,351.978485 672.000000,352.412048 
	C672.000000,364.052155 672.026306,375.359009 671.966248,386.665375 
	C671.958923,388.055511 671.647888,389.497070 671.196167,390.818634 
	C670.607361,392.541748 669.737732,394.168884 668.063843,395.988068 
	C651.714844,395.938538 635.365784,395.889008 619.454712,395.191101 
	C633.261475,392.921326 646.369141,388.844208 658.405945,381.396851 
	C662.718872,378.728394 663.790833,375.706482 662.583923,371.319580 
	C659.037354,370.365173 656.538086,370.848877 656.464905,374.851959 
	C646.990479,374.851959 637.898987,374.851959 627.344482,374.851959 
	C638.362976,369.986572 648.106689,365.684113 657.859619,361.377563 
	C656.992676,357.536224 655.287537,355.727600 651.330505,358.249603 
	C643.623901,363.161407 635.090027,362.051270 625.167297,361.866608 
	C630.910156,358.096832 635.443054,355.121338 639.892578,352.200562 
	C639.215332,350.746948 638.613281,349.454773 638.936462,348.011871 
	C686.509399,348.011871 734.082275,348.011871 781.779419,348.011871 
	C781.779419,340.151093 781.779419,332.750275 781.779419,325.289246 
	C672.446960,325.289246 563.335693,325.289246 454.269165,325.289246 
	C454.269165,352.967773 454.269165,380.355835 454.269165,407.774719 
	C458.503265,407.774719 462.468353,407.774719 467.123993,408.015320 
	C469.664276,407.317291 472.204559,406.619293 475.475525,406.194519 
z"/>
<path fill="#FFFFFF" opacity="1.000000" stroke="none" 
	d="
M743.015259,395.838898 
	C754.363708,395.888672 765.712219,395.938446 777.780151,395.969055 
	C778.671204,395.912781 778.842834,395.875671 779.014404,395.838562 
	C780.009521,396.708099 781.734924,397.482666 781.862671,398.464996 
	C782.244202,401.399292 781.999695,404.414978 781.999695,407.694885 
	C780.752197,407.805206 779.648987,407.988007 778.545776,407.988159 
	C685.058533,408.000763 591.571289,407.999969 498.084076,407.991547 
	C496.586029,407.991425 495.087952,407.885315 493.755005,407.479309 
	C514.783020,403.507874 522.914673,388.626404 521.570801,371.731445 
	C520.333801,356.180023 508.841461,343.193420 497.801361,344.094116 
	C498.436584,345.539703 498.982056,346.781067 499.181152,347.991364 
	C498.632965,348.074585 498.431213,348.188843 497.938232,348.130798 
	C497.246002,347.755188 496.844971,347.551910 496.181976,347.205658 
	C495.760834,347.529175 495.601654,347.995697 495.306030,348.776367 
	C495.350983,354.553802 490.907318,356.159607 487.351929,358.165375 
	C488.302124,356.563538 489.183075,355.246033 490.176025,354.019196 
	C490.966522,353.042572 491.893829,352.176697 492.954895,350.876282 
	C492.332581,345.866669 489.269073,343.166016 483.123688,344.108734 
	C475.406281,345.292633 467.908081,347.905487 461.208679,349.666809 
	C460.132874,353.978882 459.614349,357.759125 458.255005,361.208038 
	C452.711670,375.272705 455.381348,388.297760 466.324402,399.793701 
	C466.311462,402.721283 466.372467,405.247986 466.433441,407.774719 
	C462.468353,407.774719 458.503265,407.774719 454.269165,407.774719 
	C454.269165,380.355835 454.269165,352.967773 454.269165,325.289246 
	C563.335693,325.289246 672.446960,325.289246 781.779419,325.289246 
	C781.779419,332.750275 781.779419,340.151093 781.779419,348.011871 
	C734.082275,348.011871 686.509399,348.011871 638.098999,348.019104 
	C636.502136,348.070923 635.742615,348.115570 634.518738,348.086029 
	C606.413330,348.011871 578.772278,348.011871 551.162659,348.011871 
	C551.162659,351.042877 551.162659,353.515900 551.093872,356.452179 
	C551.070984,365.613953 551.116821,374.312531 551.087280,383.469177 
	C551.008362,387.176880 550.808594,390.446564 551.137756,393.662109 
	C551.221069,394.476196 552.990906,395.117706 554.361450,395.906128 
	C555.496521,395.928772 556.255859,395.883820 557.477539,395.913574 
	C575.955872,395.938171 593.971741,395.888123 612.424377,395.905823 
	C614.912964,395.928864 616.964905,395.884186 619.016785,395.839478 
	C635.365784,395.889008 651.714844,395.938538 668.951599,395.981201 
	C671.565979,395.929810 673.292603,395.885315 675.483521,395.914490 
	C682.959229,395.938873 689.970642,395.889557 697.319092,395.905029 
	C698.109741,395.926483 698.563232,395.883118 699.465515,395.913818 
	C702.938721,395.937927 705.963196,395.888000 709.445679,395.905975 
	C713.607422,395.928864 717.311096,395.883789 721.014832,395.838745 
	C727.030334,395.888550 733.045898,395.938385 739.898926,395.980988 
	C741.496094,395.928802 742.255676,395.883850 743.015259,395.838898 
M481.767426,339.185699 
	C486.276459,339.922821 490.785492,340.659912 496.337494,341.567535 
	C489.675323,329.440857 478.322083,330.342133 468.996185,326.884827 
	C467.739166,334.861206 470.825592,337.933990 481.767426,339.185699 
z"/>
<path fill="#057E3F" opacity="1.000000" stroke="none" 
	d="
M466.398285,399.392822 
	C455.381348,388.297760 452.711670,375.272705 458.255005,361.208038 
	C459.614349,357.759125 460.132874,353.978882 461.208679,349.666809 
	C467.908081,347.905487 475.406281,345.292633 483.123688,344.108734 
	C489.269073,343.166016 492.332581,345.866669 492.634003,350.636292 
	C483.107208,348.534515 475.859497,351.543976 474.199890,358.221985 
	C474.323639,358.328705 474.438416,358.515503 474.572388,358.530426 
	C478.304840,358.947083 482.560791,354.267120 485.778992,359.693024 
	C486.296326,359.291626 486.813660,358.890228 487.331024,358.488831 
	C490.907318,356.159607 495.350983,354.553802 495.574402,348.514099 
	C496.134125,347.741333 496.289032,347.544983 496.443970,347.348633 
	C496.844971,347.551910 497.246002,347.755188 497.903687,348.450714 
	C498.993561,350.525330 499.826691,352.107727 500.634827,353.642578 
	C498.553528,357.346802 496.479980,361.037201 494.414337,364.713501 
	C503.104767,373.881165 503.104767,373.881165 507.018799,370.718506 
	C505.483704,369.304016 504.004028,367.940582 502.415131,366.476501 
	C504.016235,366.035400 505.339722,365.670776 507.981018,364.943085 
	C504.979889,358.935974 502.253723,353.479218 499.527557,348.022430 
	C498.982056,346.781067 498.436584,345.539703 497.801361,344.094116 
	C508.841461,343.193420 520.333801,356.180023 521.570801,371.731445 
	C522.914673,388.626404 514.783020,403.507874 493.516510,407.134033 
	C487.233795,406.823547 481.354675,406.509033 475.140503,405.720947 
	C472.003082,403.295868 469.200684,401.344330 466.398285,399.392822 
M479.981445,390.365387 
	C479.692047,390.206665 479.402649,390.047913 479.068878,389.212402 
	C478.099823,388.097534 477.130768,386.982666 476.127380,385.312958 
	C475.998444,385.035889 475.869507,384.758850 475.740540,384.481781 
	C475.565582,384.629059 475.223053,384.878387 475.241150,384.908112 
	C475.468201,385.281036 475.747437,385.622131 476.082977,386.623810 
	C477.052734,387.757263 478.022522,388.890686 479.136780,390.499878 
	C479.322388,390.803375 479.591125,390.981110 480.118927,391.504272 
	C480.393005,391.681793 480.667114,391.859344 481.121185,392.508453 
	C481.400024,392.680603 481.678864,392.852783 482.109131,393.802948 
	C482.381714,396.179596 482.654327,398.556244 482.427277,401.061188 
	C482.270416,401.357513 482.113556,401.653870 481.452789,402.234589 
	C480.966309,402.821594 480.479858,403.408569 479.744232,404.142334 
	C479.831543,404.097473 479.918854,404.052612 480.658478,403.984772 
	C481.130096,403.346344 481.601715,402.707947 482.586731,401.962769 
	C482.743927,401.663025 482.901123,401.363281 483.648987,400.555542 
	C483.134277,398.000397 482.619568,395.445282 481.970398,392.401031 
	C481.697266,392.217590 481.424164,392.034149 480.993622,391.366974 
	C480.712860,391.193909 480.432129,391.020813 479.981445,390.365387 
M475.496155,367.296204 
	C475.314728,367.847992 475.133301,368.399811 474.404480,369.477783 
	C472.482025,373.717285 472.728485,377.894989 474.227325,382.721405 
	C474.542450,377.652344 474.809448,373.357086 475.651276,368.843811 
	C475.808289,368.268372 475.965271,367.692932 476.530121,367.000183 
	C476.508331,366.775238 476.486542,366.550323 476.464752,366.325378 
	C476.310883,366.544769 476.157013,366.764160 475.496155,367.296204 
z"/>
<path fill="#1888C6" opacity="1.000000" stroke="none" 
	d="
M699.016785,395.839783 
	C698.563232,395.883118 698.109741,395.926483 697.160034,395.575745 
	C694.761230,394.454590 692.780701,392.960999 690.970459,393.144745 
	C685.617310,393.688049 680.331421,394.894043 675.019226,395.840820 
	C673.292603,395.885315 671.565979,395.929810 669.414124,395.905823 
	C669.737732,394.168884 670.607361,392.541748 671.196167,390.818634 
	C671.647888,389.497070 671.958923,388.055511 671.966248,386.665375 
	C672.026306,375.359009 672.000000,364.052155 672.000000,352.412048 
	C678.869690,351.978485 685.545898,351.557129 692.749878,351.102478 
	C692.749878,362.872040 692.749878,374.592773 692.749878,386.406433 
	C696.142090,387.615906 697.879150,386.958710 699.032898,383.763733 
	C701.728455,376.299103 703.942505,368.817719 702.714355,360.389679 
	C701.084595,360.183075 699.354004,359.963684 697.259705,359.698181 
	C697.197876,358.324097 697.135315,356.934937 697.058960,355.238586 
	C698.971191,355.093018 700.588013,354.969910 702.612427,354.815765 
	C702.816101,353.157532 703.029541,351.419800 703.284607,349.343109 
	C704.965698,349.343109 706.692810,349.343109 708.773132,349.343109 
	C708.912170,351.063690 709.053406,352.811401 709.244629,355.177673 
	C714.159363,354.777496 718.814026,354.398468 723.990051,353.976990 
	C723.990051,366.664764 724.071838,378.940033 723.873291,391.210785 
	C723.851624,392.549072 722.214661,393.861237 721.170898,395.512146 
	C717.311096,395.883789 713.607422,395.928864 709.450073,395.476196 
	C709.075134,393.728943 709.153687,392.479401 709.251953,390.917145 
	C712.271606,390.917145 714.880676,390.917145 717.733032,390.917145 
	C717.733032,380.518555 717.733032,370.469849 717.733032,360.322357 
	C714.741577,360.322357 712.024597,360.322357 709.112671,360.322357 
	C709.298889,373.375946 706.066833,385.166504 699.016785,395.839783 
M681.573486,368.000488 
	C674.367493,368.926178 679.736877,373.881042 677.716614,376.748932 
	C681.358521,376.748932 683.960083,376.748932 686.698669,376.748932 
	C686.698669,373.776550 686.698669,371.060730 686.698669,368.000061 
	C685.107239,368.000061 683.803589,368.000061 681.573486,368.000488 
M680.656738,382.003357 
	C675.200928,383.302490 679.255981,387.187286 678.000793,390.003204 
	C681.239807,389.481812 683.914551,389.051239 686.713928,388.600616 
	C686.713928,386.460907 686.713928,384.418182 686.713928,382.000427 
	C684.815674,382.000427 683.197998,382.000427 680.656738,382.003357 
M682.505371,362.999969 
	C683.940735,362.909210 685.376160,362.818481 686.775757,362.730011 
	C686.775757,360.698944 686.775757,359.090485 686.775757,357.274841 
	C683.827087,357.274841 681.099792,357.274841 678.202942,357.274841 
	C678.132385,360.140015 676.546997,363.522064 682.505371,362.999969 
z"/>
<path fill="#1888C6" opacity="1.000000" stroke="none" 
	d="
M634.983154,348.160187 
	C635.742615,348.115570 636.502136,348.070923 637.636414,348.094482 
	C638.613281,349.454773 639.215332,350.746948 639.892578,352.200562 
	C635.443054,355.121338 630.910156,358.096832 625.167297,361.866608 
	C635.090027,362.051270 643.623901,363.161407 651.330505,358.249603 
	C655.287537,355.727600 656.992676,357.536224 657.859619,361.377563 
	C648.106689,365.684113 638.362976,369.986572 627.344482,374.851959 
	C637.898987,374.851959 646.990479,374.851959 656.464905,374.851959 
	C656.538086,370.848877 659.037354,370.365173 662.583923,371.319580 
	C663.790833,375.706482 662.718872,378.728394 658.405945,381.396851 
	C646.369141,388.844208 633.261475,392.921326 619.235718,395.515320 
	C616.964905,395.884186 614.912964,395.928864 612.428711,395.488647 
	C611.996399,393.858459 611.996399,392.713226 611.996399,391.326691 
	C624.602356,388.983978 637.022583,386.694733 648.192627,379.852173 
	C636.855164,379.852173 625.517639,379.852173 614.429260,379.852173 
	C613.097168,375.847961 614.937073,374.189514 617.918335,372.989227 
	C622.088501,371.310303 626.173645,369.420319 630.295166,367.620636 
	C630.263672,367.371582 630.232178,367.122498 630.200745,366.873413 
	C625.196411,366.873413 620.192078,366.873413 615.187744,366.873413 
	C614.835449,366.432037 614.483154,365.990662 614.130920,365.549316 
	C615.422058,363.854431 616.428589,361.791840 618.056274,360.531616 
	C623.580078,356.254822 629.323608,352.261688 634.983154,348.160187 
z"/>
<path fill="#1888C6" opacity="1.000000" stroke="none" 
	d="
M743.194519,395.532227 
	C742.255676,395.883850 741.496094,395.928802 740.361084,395.906189 
	C739.329956,394.540344 738.674316,393.242065 738.018738,391.943817 
	C738.460327,392.008423 738.901978,392.073059 739.343628,392.137695 
	C740.105774,388.757446 740.867920,385.377167 741.854370,381.002014 
	C738.069763,382.929688 735.383850,384.297729 732.345093,385.845490 
	C731.534119,384.575775 730.711487,383.287872 729.610779,381.564545 
	C738.981934,376.179840 747.624268,370.269226 753.261780,360.278625 
	C747.970093,360.278625 743.256287,360.278625 738.216797,360.278625 
	C738.089783,361.988068 737.970154,363.598328 737.808838,365.769073 
	C736.140686,365.849396 734.407959,365.932831 732.330078,366.032898 
	C732.330078,362.382751 732.330078,358.986145 732.330078,355.054779 
	C739.762695,355.054779 747.161682,355.054779 754.780823,355.054779 
	C754.919189,352.938446 755.024780,351.323120 755.155090,349.330048 
	C756.585571,349.215576 757.977295,349.104248 759.661316,348.969513 
	C759.881531,351.007568 760.070312,352.755127 760.334045,355.195892 
	C767.431946,354.885010 774.445068,354.577850 781.722412,354.259094 
	C781.722412,358.081726 781.722412,361.815948 781.722412,365.773651 
	C779.917725,365.773651 778.313171,365.773651 776.383728,365.773651 
	C776.171265,364.066925 775.954041,362.322571 775.665405,360.004608 
	C770.917358,360.004608 766.132202,359.856873 761.369080,360.114624 
	C760.259705,360.174591 758.990967,361.430725 758.196350,362.449188 
	C754.712463,366.914154 751.216614,371.388000 748.081970,376.096252 
	C747.131897,377.523254 747.203186,379.702393 747.035706,381.557739 
	C746.871826,383.372162 747.000000,385.212921 747.000000,387.551971 
	C749.991089,386.411621 752.738953,385.363983 755.689941,384.238892 
	C756.349487,386.005951 756.973145,387.676727 757.616272,389.399689 
	C752.854431,391.347504 748.114136,393.286530 743.194519,395.532227 
z"/>
<path fill="#1888C6" opacity="1.000000" stroke="none" 
	d="
M779.143921,395.539886 
	C778.842834,395.875671 778.671204,395.912781 778.242615,395.894226 
	C771.703796,388.774139 765.397034,381.731537 759.166870,374.621887 
	C758.227112,373.549438 757.644104,372.164368 756.643066,370.504364 
	C758.332214,369.523193 759.794861,368.673584 761.411682,367.734436 
	C763.208313,370.348145 764.767578,372.616547 766.617310,375.307495 
	C768.675964,373.801117 770.869690,372.646759 772.460999,370.932983 
	C775.329102,367.844299 777.166504,368.904816 779.608398,372.970825 
	C778.084656,374.124481 776.399292,375.436646 774.676636,376.697906 
	C769.789795,380.275787 769.777649,380.273743 774.156677,384.645721 
	C775.567566,386.054382 776.790222,387.921814 778.499634,388.707733 
	C782.698181,390.637909 781.883911,392.729187 779.143921,395.539886 
z"/>
<path fill="#1888C6" opacity="1.000000" stroke="none" 
	d="
M466.324402,399.793701 
	C469.200684,401.344330 472.003082,403.295868 474.775146,405.584320 
	C472.204559,406.619293 469.664276,407.317291 466.778717,407.895020 
	C466.372467,405.247986 466.311462,402.721283 466.324402,399.793701 
z"/>
<path fill="#000000" opacity="1.000000" stroke="none" 
	d="
M634.518738,348.086029 
	C629.323608,352.261688 623.580078,356.254822 618.056274,360.531616 
	C616.428589,361.791840 615.422058,363.854431 614.130920,365.549316 
	C614.483154,365.990662 614.835449,366.432037 615.187744,366.873413 
	C620.192078,366.873413 625.196411,366.873413 630.200745,366.873413 
	C630.232178,367.122498 630.263672,367.371582 630.295166,367.620636 
	C626.173645,369.420319 622.088501,371.310303 617.918335,372.989227 
	C614.937073,374.189514 613.097168,375.847961 614.429260,379.852173 
	C625.517639,379.852173 636.855164,379.852173 648.192627,379.852173 
	C637.022583,386.694733 624.602356,388.983978 611.996399,391.326691 
	C611.996399,392.713226 611.996399,393.858459 611.992065,395.420898 
	C593.971741,395.888123 575.955872,395.938171 557.612671,395.602936 
	C569.157898,381.709137 567.351624,365.455383 566.723083,349.316589 
	C565.098022,349.316589 563.717102,349.316589 562.000000,349.316589 
	C562.000000,352.246704 561.893311,354.887054 562.018311,357.516449 
	C562.591492,369.579010 561.324646,381.084076 553.183716,390.906952 
	C552.484924,391.750122 553.673767,394.157684 553.985718,395.838531 
	C552.990906,395.117706 551.221069,394.476196 551.137756,393.662109 
	C550.808594,390.446564 551.008362,387.176880 551.521301,383.465302 
	C553.599243,382.917755 555.167847,382.832184 556.754517,382.745605 
	C556.754517,373.671570 556.754517,365.003876 556.754517,355.988953 
	C554.728516,355.988953 552.945618,355.988953 551.162659,355.988953 
	C551.162659,353.515900 551.162659,351.042877 551.162659,348.011871 
	C578.772278,348.011871 606.413330,348.011871 634.518738,348.086029 
M572.788269,351.002228 
	C568.609802,350.922638 570.240662,353.582153 570.186035,356.185089 
	C579.321838,356.185089 588.056091,356.185089 596.750488,356.185089 
	C596.750488,360.666412 596.750488,364.602509 596.750488,369.054810 
	C588.440613,369.054810 580.363464,369.054810 571.960083,369.054810 
	C572.109375,370.989746 572.216309,372.375000 572.349670,374.103455 
	C580.644714,374.103455 588.582336,374.103455 596.698853,374.103455 
	C596.698853,379.532074 596.698853,384.582794 596.698853,390.149048 
	C587.330200,390.149048 578.250732,390.149048 568.862000,390.149048 
	C569.084045,392.088074 569.243103,393.477264 569.417175,394.997711 
	C578.983093,394.997711 588.138428,394.978455 597.293640,395.007935 
	C600.616760,395.018616 602.873779,393.422028 602.914795,390.172607 
	C603.082581,376.894012 602.984802,363.612061 602.984802,351.000244 
	C592.864441,351.000244 583.299377,351.000244 572.788269,351.002228 
z"/>
<path fill="#000000" opacity="1.000000" stroke="none" 
	d="
M699.465515,395.913818 
	C706.066833,385.166504 709.298889,373.375946 709.112671,360.322357 
	C712.024597,360.322357 714.741577,360.322357 717.733032,360.322357 
	C717.733032,370.469849 717.733032,380.518555 717.733032,390.917145 
	C714.880676,390.917145 712.271606,390.917145 709.251953,390.917145 
	C709.153687,392.479401 709.075134,393.728943 708.992065,395.408264 
	C705.963196,395.888000 702.938721,395.937927 699.465515,395.913818 
z"/>
<path fill="#1888C6" opacity="1.000000" stroke="none" 
	d="
M554.361450,395.906128 
	C553.673767,394.157684 552.484924,391.750122 553.183716,390.906952 
	C561.324646,381.084076 562.591492,369.579010 562.018311,357.516449 
	C561.893311,354.887054 562.000000,352.246704 562.000000,349.316589 
	C563.717102,349.316589 565.098022,349.316589 566.723083,349.316589 
	C567.351624,365.455383 569.157898,381.709137 557.150269,395.528259 
	C556.255859,395.883820 555.496521,395.928772 554.361450,395.906128 
z"/>
<path fill="#057E3F" opacity="1.000000" stroke="none" 
	d="
M481.347412,339.127777 
	C470.825592,337.933990 467.739166,334.861206 468.996185,326.884827 
	C478.322083,330.342133 489.675323,329.440857 496.337494,341.567535 
	C490.785492,340.659912 486.276459,339.922821 481.347412,339.127777 
z"/>
<path fill="#1888C6" opacity="1.000000" stroke="none" 
	d="
M551.093872,356.452179 
	C552.945618,355.988953 554.728516,355.988953 556.754517,355.988953 
	C556.754517,365.003876 556.754517,373.671570 556.754517,382.745605 
	C555.167847,382.832184 553.599243,382.917755 551.596680,383.007202 
	C551.116821,374.312531 551.070984,365.613953 551.093872,356.452179 
z"/>
<path fill="#1888C6" opacity="1.000000" stroke="none" 
	d="
M487.351929,358.165375 
	C486.813660,358.890228 486.296326,359.291626 485.778992,359.693024 
	C482.560791,354.267120 478.304840,358.947083 474.572388,358.530426 
	C474.438416,358.515503 474.323639,358.328705 474.199890,358.221985 
	C475.859497,351.543976 483.107208,348.534515 492.439484,351.021606 
	C491.893829,352.176697 490.966522,353.042572 490.176025,354.019196 
	C489.183075,355.246033 488.302124,356.563538 487.351929,358.165375 
z"/>
<path fill="#000000" opacity="1.000000" stroke="none" 
	d="
M675.483521,395.914490 
	C680.331421,394.894043 685.617310,393.688049 690.970459,393.144745 
	C692.780701,392.960999 694.761230,394.454590 696.822998,395.510956 
	C689.970642,395.889557 682.959229,395.938873 675.483521,395.914490 
z"/>
<path fill="#057E3F" opacity="1.000000" stroke="none" 
	d="
M495.710815,348.199951 
	C495.601654,347.995697 495.760834,347.529175 496.181976,347.205658 
	C496.289032,347.544983 496.134125,347.741333 495.710815,348.199951 
z"/>
<path fill="#1888C6" opacity="1.000000" stroke="none" 
	d="
M499.181152,347.991364 
	C502.253723,353.479218 504.979889,358.935974 507.981018,364.943085 
	C505.339722,365.670776 504.016235,366.035400 502.415131,366.476501 
	C504.004028,367.940582 505.483704,369.304016 507.018799,370.718506 
	C503.104767,373.881165 503.104767,373.881165 494.414337,364.713501 
	C496.479980,361.037201 498.553528,357.346802 500.634827,353.642578 
	C499.826691,352.107727 498.993561,350.525330 498.194946,348.623047 
	C498.431213,348.188843 498.632965,348.074585 499.181152,347.991364 
z"/>
<path fill="#1888C6" opacity="1.000000" stroke="none" 
	d="
M475.076477,369.061829 
	C474.809448,373.357086 474.542450,377.652344 474.227325,382.721405 
	C472.728485,377.894989 472.482025,373.717285 474.708679,369.242981 
	C475.012878,369.008148 475.076477,369.061829 475.076477,369.061829 
z"/>
<path fill="#1888C6" opacity="1.000000" stroke="none" 
	d="
M482.926910,400.932892 
	C482.654327,398.556244 482.381714,396.179596 482.071594,393.381775 
	C482.034088,392.960602 482.104858,392.890137 482.104858,392.890137 
	C482.619568,395.445282 483.134277,398.000397 483.321381,400.775452 
	C482.993774,400.995361 482.926910,400.932892 482.926910,400.932892 
z"/>
<path fill="#1888C6" opacity="1.000000" stroke="none" 
	d="
M476.161713,385.867798 
	C477.130768,386.982666 478.099823,388.097534 479.059509,389.583313 
	C479.050140,389.954254 478.992310,390.024109 478.992310,390.024109 
	C478.022522,388.890686 477.052734,387.757263 476.086334,386.273254 
	C476.089691,385.922668 476.161713,385.867798 476.161713,385.867798 
z"/>
<path fill="#1888C6" opacity="1.000000" stroke="none" 
	d="
M482.073364,402.069550 
	C481.601715,402.707947 481.130096,403.346344 480.329254,403.992554 
	C480.000031,404.000366 479.993378,403.995575 479.993378,403.995575 
	C480.479858,403.408569 480.966309,402.821594 481.732941,402.123169 
	C482.013092,402.011780 482.073364,402.069550 482.073364,402.069550 
z"/>
<path fill="#1888C6" opacity="1.000000" stroke="none" 
	d="
M476.051514,385.947021 
	C475.747437,385.622131 475.468201,385.281036 475.241150,384.908112 
	C475.223053,384.878387 475.565582,384.629059 475.740540,384.481781 
	C475.869507,384.758850 475.998444,385.035889 476.144531,385.590393 
	C476.161713,385.867798 476.089691,385.922668 476.051514,385.947021 
z"/>
<path fill="#1888C6" opacity="1.000000" stroke="none" 
	d="
M474.982361,368.979858 
	C475.133301,368.399811 475.314728,367.847992 475.777771,367.174835 
	C476.059418,367.053467 476.122284,367.117523 476.122253,367.117523 
	C475.965271,367.692932 475.808289,368.268372 475.363892,368.952820 
	C475.076477,369.061829 475.012878,369.008148 474.982361,368.979858 
z"/>
<path fill="#1888C6" opacity="1.000000" stroke="none" 
	d="
M480.003082,404.004059 
	C479.918854,404.052612 479.831543,404.097473 479.868805,404.068970 
	C479.993378,403.995575 480.000031,404.000366 480.003082,404.004059 
z"/>
<path fill="#1888C6" opacity="1.000000" stroke="none" 
	d="
M481.984863,401.981018 
	C482.113556,401.653870 482.270416,401.357513 482.677094,400.997040 
	C482.926910,400.932892 482.993774,400.995361 483.026062,401.029419 
	C482.901123,401.363281 482.743927,401.663025 482.330048,402.016174 
	C482.073364,402.069550 482.013092,402.011780 481.984863,401.981018 
z"/>
<path fill="#1888C6" opacity="1.000000" stroke="none" 
	d="
M481.995911,392.992767 
	C481.678864,392.852783 481.400024,392.680603 481.084869,392.227478 
	C481.048553,391.946533 481.151031,391.850739 481.151031,391.850739 
	C481.424164,392.034149 481.697266,392.217590 482.037628,392.645569 
	C482.104858,392.890137 482.034088,392.960602 481.995911,392.992767 
z"/>
<path fill="#1888C6" opacity="1.000000" stroke="none" 
	d="
M480.994873,391.991699 
	C480.667114,391.859344 480.393005,391.681793 480.084442,391.224060 
	C480.049957,390.943848 480.151367,390.847748 480.151367,390.847748 
	C480.432129,391.020813 480.712860,391.193909 481.072327,391.608856 
	C481.151031,391.850739 481.048553,391.946533 480.994873,391.991699 
z"/>
<path fill="#1888C6" opacity="1.000000" stroke="none" 
	d="
M479.081696,389.921692 
	C479.402649,390.047913 479.692047,390.206665 480.066406,390.606567 
	C480.151367,390.847748 480.049957,390.943848 479.996490,390.988495 
	C479.591125,390.981110 479.322388,390.803375 479.064545,390.261993 
	C478.992310,390.024109 479.050140,389.954254 479.081696,389.921692 
z"/>
<path fill="#1888C6" opacity="1.000000" stroke="none" 
	d="
M476.031281,367.018494 
	C476.157013,366.764160 476.310883,366.544769 476.464752,366.325378 
	C476.486542,366.550323 476.508331,366.775238 476.326202,367.058838 
	C476.122284,367.117523 476.059418,367.053467 476.031281,367.018494 
z"/>
<path fill="#000000" opacity="1.000000" stroke="none" 
	d="
M682.036743,368.000275 
	C683.803589,368.000061 685.107239,368.000061 686.698669,368.000061 
	C686.698669,371.060730 686.698669,373.776550 686.698669,376.748932 
	C683.960083,376.748932 681.358521,376.748932 677.716614,376.748932 
	C679.736877,373.881042 674.367493,368.926178 682.036743,368.000275 
z"/>
<path fill="#000000" opacity="1.000000" stroke="none" 
	d="
M681.118530,382.001892 
	C683.197998,382.000427 684.815674,382.000427 686.713928,382.000427 
	C686.713928,384.418182 686.713928,386.460907 686.713928,388.600616 
	C683.914551,389.051239 681.239807,389.481812 678.000793,390.003204 
	C679.255981,387.187286 675.200928,383.302490 681.118530,382.001892 
z"/>
<path fill="#000000" opacity="1.000000" stroke="none" 
	d="
M682.046021,362.999756 
	C676.546997,363.522064 678.132385,360.140015 678.202942,357.274841 
	C681.099792,357.274841 683.827087,357.274841 686.775757,357.274841 
	C686.775757,359.090485 686.775757,360.698944 686.775757,362.730011 
	C685.376160,362.818481 683.940735,362.909210 682.046021,362.999756 
z"/>
<path fill="#1888C6" opacity="1.000000" stroke="none" 
	d="
M573.261230,351.001221 
	C583.299377,351.000244 592.864441,351.000244 602.984802,351.000244 
	C602.984802,363.612061 603.082581,376.894012 602.914795,390.172607 
	C602.873779,393.422028 600.616760,395.018616 597.293640,395.007935 
	C588.138428,394.978455 578.983093,394.997711 569.417175,394.997711 
	C569.243103,393.477264 569.084045,392.088074 568.862000,390.149048 
	C578.250732,390.149048 587.330200,390.149048 596.698853,390.149048 
	C596.698853,384.582794 596.698853,379.532074 596.698853,374.103455 
	C588.582336,374.103455 580.644714,374.103455 572.349670,374.103455 
	C572.216309,372.375000 572.109375,370.989746 571.960083,369.054810 
	C580.363464,369.054810 588.440613,369.054810 596.750488,369.054810 
	C596.750488,364.602509 596.750488,360.666412 596.750488,356.185089 
	C588.056091,356.185089 579.321838,356.185089 570.186035,356.185089 
	C570.240662,353.582153 568.609802,350.922638 573.261230,351.001221 
z"/>
</svg>